<svg xmlns="http://www.w3.org/2000/svg" viewBox="0 0 500 500">
  <path fill="#eda566" fill-rule="evenodd" d="M250.495 10.243c132.69 0 240.5 107.024 240.5 239.878 0 131.935-107.81 239.879-240.5 239.879C117.81 490 10 382.976 10 250.121 10 117.267 117.81 10.243 250.495 10.243Z" clip-rule="evenodd"/>
  <g>
    <g fill="#2d3c4d">
      <path d="m153.842 99.27 98.595 95.028c17.506 17.531 17.506 46.13 0 64.583l-65.423 62.737c-17.508 17.531-46.993 17.531-65.423 0l97.673-95.951-65.422-62.737c-18.43-17.53-18.43-46.131 0-63.66ZM263.493 351.142c0 24.911-20.272 45.208-46.071 45.208H80.126c0-24.91 20.271-45.208 46.072-45.208h137.295Z"/>
    </g>
    <g fill="#2d3c4d">
      <path d="m347.947 99.27-98.595 95.028c-17.507 17.531-17.507 46.13 0 64.583l65.423 62.737c17.508 17.531 46.993 17.531 65.422 0l-97.673-95.951 65.423-62.737c18.43-17.53 18.43-46.131 0-63.66ZM238.295 351.142c0 24.911 20.272 45.208 46.072 45.208h137.295c0-24.91-20.271-45.208-46.072-45.208H238.295Z"/>
    </g>
    <path fill="#2d3c4c" stroke="#2d3c4c" stroke-width="2.80908" d="M188.926 371.244h129.1v23.902h-129.1z"/>
  </g>
</svg>